<svg id="Layer_1" data-name="Layer 1" xmlns="http://www.w3.org/2000/svg" viewBox="0 0 256 256"><title>suffice icon</title><rect width="256" height="256" style="fill:#30baf1"/><path d="M130,46.37l2.87,11.49L134,62.36l4.5,1.2a39.59,39.59,0,0,1,17.73,10.19l3.29,3.3L164,75.77l11.33-3.24,1.73,3-8.51,8.23L165.22,87l1.2,4.49a38.18,38.18,0,0,1,0,20.43l-1.2,4.49,3.34,3.23,8.51,8.23-1.73,3L164,127.62l-4.47-1.28-3.29,3.29a39.4,39.4,0,0,1-17.73,10.19L134,141l-1.13,4.51L130,157h-3.46l-2.87-11.49L122.56,141l-4.5-1.2a39.59,39.59,0,0,1-17.73-10.19L97,126.34l-4.47,1.28-11.33,3.24-1.73-3L88,119.63l3.34-3.23-1.2-4.49a38.18,38.18,0,0,1,0-20.43L91.36,87,88,83.76,79.5,75.53l1.73-3,11.33,3.24L97,77.05l3.29-3.3a39.59,39.59,0,0,1,17.73-10.19l4.5-1.2,1.13-4.51,2.87-11.49H130m-1.73,79a23.71,23.71,0,1,0-23.71-23.71,23.74,23.74,0,0,0,23.71,23.71m7.9-86.95H120.38L116,55.93A47.44,47.44,0,0,0,94.74,68.17L77.48,63.23l-7.9,13.69L82.52,89.45a46,46,0,0,0,0,24.5L69.57,126.47l7.9,13.69,17.26-4.94A47.44,47.44,0,0,0,116,147.46l4.37,17.47h15.81l4.37-17.47a47.32,47.32,0,0,0,21.27-12.24l17.26,4.94,7.9-13.69-12.95-12.52a46,46,0,0,0,0-24.5L187,76.92l-7.9-13.69-17.26,4.94a47.44,47.44,0,0,0-21.27-12.24l-4.37-17.47Zm-7.9,79a15.81,15.81,0,1,1,15.81-15.81,15.8,15.8,0,0,1-15.81,15.81Z" style="fill:#fff"/><text transform="translate(24.47 210.87)" style="font-size:25.483388900756836px;fill:#fff;font-family:Poppins-Regular, Poppins">SUFFICE <tspan x="103.54" y="0" style="font-family:Poppins-SemiBold, Poppins;font-weight:700">TOOLKIT</tspan></text></svg>